<?xml version="1.0" encoding="utf-8"?>
<!-- Designed by Vexels.com - 2016 All Rights Reserved - https://vexels.com/terms-and-conditions/  -->

<svg version="1.1" id="Capa_1" xmlns="http://www.w3.org/2000/svg" xmlns:xlink="http://www.w3.org/1999/xlink" x="0px" y="0px"
	 width="1200px" height="1199.999px" viewBox="0 0 1200 1199.999" enable-background="new 0 0 1200 1199.999" xml:space="preserve">
<g>
	<path fill="#F1FAFD" d="M1000.313,593.286c-25.95,7.566-37.756-28.947-75.517-17.621c-37.759,11.326-26.432,17.621-62.302-5.033
		c-35.871-22.656-116.299,7.555-116.299,7.555s21.518-18.883,0-45.314c-21.519-26.43-140.458,58.529-166.888,56.641
		c-26.432-1.889,49.085-54.752,15.103-90.623c-33.982-35.867-113.275-81.18-175.577-45.309c0,0-5.663-24.543-64.188-24.543
		c-58.526,0-90.622,96.283-90.622,96.283s-43.773-24.543-85.133,0c-41.356,24.545-79.114,64.191-67.788,103.838
		c2.33,8.152,16.475,14.02,29.275,17.74c31.032-21.271,65.585-2.283,65.585-2.283s18.216-98.271,66.896-102.576
		c48.684-4.305,55.557,19.727,55.557,19.727c48.663-40.316,118.613-1.012,150.037,32.217c31.429,33.232-26.731,91.445-4.579,91.381
		c22.15-0.063,113.603-93.441,133.831-68.697c20.227,24.746,3.99,45.137,3.99,45.137s64.24-36.006,96.072-16.08
		c31.833,19.93,21.857,14.492,52.269,0.432c30.41-14.061,43.446,21.445,64.366,12c0.032-0.014,0.063-0.027,0.096-0.043
		c7.313-10.08,11.566-17.629,11.566-17.629s41.96,11.33,57.794,11.33c15.835,0,10.17-33.982,63.031-28.32
		c52.862,5.666,73.631-33.078,134.043-10.875C1090.934,612.618,1078.002,570.636,1000.313,593.286z"/>
	<path fill="#E3F4FC" d="M760.037,646.155c-30.412,14.061-20.437,19.498-52.269-0.432c-31.833-19.926-96.072,16.08-96.072,16.08
		s16.236-20.391-3.99-45.137c-20.229-24.744-111.681,68.635-133.831,68.697c-22.152,0.064,36.007-58.148,4.579-91.381
		c-31.424-33.229-101.374-72.533-150.037-32.217c0,0-6.873-24.031-55.557-19.727c-48.681,4.305-66.896,102.576-66.896,102.576
		s-34.553-18.988-65.585,2.283c11.38,3.305,21.698,4.914,21.698,4.914s-1.888,47.195,28.32,64.188
		c30.206,16.992,100.059,0,100.059,0s24.544,50.975,67.967,54.752c43.421,3.773,107.611-45.311,145.37-43.424
		c37.758,1.889,52.861,41.535,113.275,28.32c60.412-13.217,69.853-79.293,69.853-79.293s32.094,39.648,73.629,32.094
		c26.866-4.883,50.558-31.875,63.951-50.338c-0.032,0.016-0.063,0.029-0.096,0.043C803.483,667.601,790.447,632.095,760.037,646.155
		z"/>
</g>
</svg>
