<?xml version="1.0" encoding="utf-8"?>
<!-- Designed by Vexels.com - 2016 All Rights Reserved - https://vexels.com/terms-and-conditions/  -->

<svg version="1.1" id="Capa_1" xmlns="http://www.w3.org/2000/svg" xmlns:xlink="http://www.w3.org/1999/xlink" x="0px" y="0px"
	 width="1200px" height="1199.999px" viewBox="0 0 1200 1199.999" enable-background="new 0 0 1200 1199.999" xml:space="preserve">
<g>
	<path fill="#F1FAFD" d="M1022.098,622.216c-28.521-10.642-74.115,15.697-86.976-7.448c-12.858-23.146,1.715-61.724-39.432-61.724
		c0,0,3.429-38.576-30.861-51.434c-34.29-12.859-106.3,15.43-96.013,59.15c0,0-48.863-17.695-67.723,7.012
		c-18.859,24.706,6.525,51.28-13.883,55.566c-20.407,4.287-24.693-22.287-43.553-18.858c-18.86,3.428-28.29,39.433-28.29,39.433
		s-12.859-27.431-41.148-20.574c-28.29,6.858-23.146,54.008-84.012,33.434c-60.865-20.573-74.58-66.009-123.444-48.008
		c0,0,5.143-24.858-25.718-40.29c-30.86-15.431-36.861,3.43-36.861,3.43s5.143-24.861-20.575-30.005
		c-25.718-5.143-20.573,59.152-52.292,60.009s-45.434-4.286-60.007,24.859c0,0-4.287-15.433-27.433-7.717
		c-23.145,7.717-23.628,5.146-36.674,4.287c-13.046-0.856-4.23,12.859,12.793,10.287c17.023-2.572,26.453-4.285,38.455,4.287
		s52.292-2.573,52.292-2.573s13.716,18.861,39.433,22.29c6.362,0.848,11.828,0.593,16.458-0.27c2.882-1.558,5.989-2.442,9.446-2.947
		c7.499-3.412,10.959-7.928,10.959-7.928s1.96,3.909,6.827,7.267c2.921,0.002,6.046-0.011,9.41-0.102
		c27.134-0.733,22.733-55.734,44.735-51.336c22,4.4,17.6,25.668,17.6,25.668s5.133-16.134,31.534-2.934
		c11.282,5.641,16.928,12.752,19.708,19.05c4.824,0.101,9.099,0.771,12.49,2.387c18.003,8.571,48.864,29.147,71.152,25.718
		c0,0,9.431,15.432,39.434,16.287c30.003,0.857,36.203-19.717,36.203-19.717s4.297,3.111,12.565,6.86
		c2.302-1.637,4.886-2.914,7.92-3.649c19.262-4.67,30.153,9.234,33.799,15.107c0.681,0.088,1.366,0.171,2.058,0.25
		c2.214-7.13,10.059-29.04,23.544-31.491c14.596-2.653,18.989,15.695,32.62,16.505c3.607-4.536,6.776-8.998,11.781-11.846
		c-0.778-9.403-5.211-23.035,4.733-36.062c16.134-21.136,57.935-5.998,57.935-5.998c-8.8-37.401,52.802-61.603,82.137-50.602
		c29.334,11,26.4,44,26.4,44c35.2,0,22.733,33.002,33.733,52.802c11.001,19.801,50.005-2.73,74.404,6.373
		c6.105,2.277,11.708,4.127,16.841,5.622c0.367-0.053,0.725-0.097,1.099-0.156c27.432-4.286-1.311-36.576,53.622-22.288
		c32.961,8.572,47.736-21.432,47.736-21.432S1079.534,643.646,1022.098,622.216z"/>
	<path fill="#E3F4FC" d="M596.619,671.983c-3.034,0.735-5.619,2.013-7.92,3.649c9.154,4.151,23.193,9.081,41.72,11.458
		C626.771,681.218,615.881,667.313,596.619,671.983z"/>
	<path fill="#F1FAFD" d="M266.635,657.359c3.668-0.683,6.806-1.746,9.446-2.947C272.624,654.917,269.518,655.802,266.635,657.359z"
		/>
	<path fill="#E3F4FC" d="M905.359,664.649c-11-19.8,1.467-52.802-33.733-52.802c0,0,2.934-33-26.4-44
		c-29.334-11.001-90.937,13.2-82.137,50.602c0,0-41.8-15.138-57.935,5.998c-9.944,13.026-5.511,26.658-4.733,36.062
		c6.533-3.718,16.201-4.686,34.106,0.549c55.72,16.288,59.149,17.145,75.438,11.145c0,0,17.336,16.34,29.67,16.313
		c12.335-0.026,27.766-13.742,27.766-13.742s18.859,29.147,66.009,26.574c47.147-2.571,30.002-31.718,30.002-31.718
		s6.687,10.83,33.192,7.015c-5.134-1.495-10.736-3.345-16.841-5.622C955.364,661.919,916.361,684.45,905.359,664.649z"/>
	<path fill="#E3F4FC" d="M688.64,672.354c-13.631-0.81-18.024-19.158-32.62-16.505c-13.486,2.451-21.331,24.361-23.544,31.491
		c6.37,0.738,13.237,1.178,20.611,1.175C674.59,688.504,682.303,680.321,688.64,672.354z"/>
	<path fill="#E3F4FC" d="M350.477,644.769c14.611,9.045,45.597-1.106,66.377-0.671c-2.78-6.298-8.426-13.409-19.708-19.05
		c-26.401-13.2-31.534,2.934-31.534,2.934s4.4-21.268-17.6-25.668c-22.001-4.398-17.601,50.603-44.735,51.336
		c-3.364,0.091-6.489,0.104-9.41,0.102c3.659,2.524,8.96,4.736,16.318,4.736C327.331,658.487,332.475,633.625,350.477,644.769z"/>
</g>
</svg>
