<?xml version="1.0" encoding="utf-8"?>
<!-- Designed by Vexels.com - 2016 All Rights Reserved - https://vexels.com/terms-and-conditions/  -->

<svg version="1.1" id="Capa_1" xmlns="http://www.w3.org/2000/svg" xmlns:xlink="http://www.w3.org/1999/xlink" x="0px" y="0px"
	 width="1200px" height="1199.999px" viewBox="0 0 1200 1199.999" enable-background="new 0 0 1200 1199.999" xml:space="preserve">
<g>
	<path fill="#F1FAFD" d="M1002.484,640.249c0,0,26.076-21.254,46.358-0.971c20.28,20.285,78.23-16.096,17.384-49.578
		c-60.848-33.48-133.282,68.314-165.154,34.801c-31.872-33.512-23.18-114.639-115.896-82.768c0,0-20.138-121.691-120.172-133.281
		C564.968,396.86,507.02,550.425,507.02,550.425s-55.049-23.178-141.973,5.799c-86.924,28.975-62.826,104.361-146.437,100.191
		c-42.512-2.123-73.44-46.219-89.016-53.268c-26.11-11.813-27.28-6.225-16.393,1.803c17.386,12.814,21.355,84.223,106.974,96.145
		c51.732,7.203,112.999-31.873,112.999-31.873s17.572,28.107,51.336,50.123c19.028-20.217,27.689-52.594,75.617-68.572
		c74.688-24.896,121.988-4.98,121.988-4.98s49.788-131.945,135.74-121.986c85.952,9.957,103.253,114.518,103.253,114.518
		c79.667-27.385,72.197,42.322,99.581,71.115c1.049,1.105,2.146,2.047,3.28,2.873c3.168-13.963,3.18-25.703,3.18-25.703
		S996.688,741.659,1002.484,640.249z"/>
	<path fill="#E3F4FC" d="M821.109,638.323c0,0-17.301-104.561-103.253-114.518c-85.952-9.959-135.74,121.986-135.74,121.986
		s-47.301-19.916-121.988,4.98c-47.928,15.979-56.589,48.355-75.617,68.572c9.599,6.262,20.503,12.031,32.688,16.521
		c55.052,20.279,101.412,0,101.412,0s5.653,43.459,82.506,55.049c76.853,11.592,102.931-60.846,157.98-57.949
		c55.051,2.9,98.515,34.771,133.284,23.18c19.122-6.375,27.718-26.766,31.589-43.834c-1.134-0.826-2.231-1.768-3.28-2.873
		C893.307,680.646,900.776,610.938,821.109,638.323z"/>
</g>
</svg>
